M48
; DRILL file {KiCad 9.0.2} date 2025-07-04T21:54:40+0900
; FORMAT={-:-/ absolute / metric / decimal}
; #@! TF.CreationDate,2025-07-04T21:54:40+09:00
; #@! TF.GenerationSoftware,Kicad,Pcbnew,9.0.2
; #@! TF.FileFunction,Plated,1,2,PTH
FMAT,2
METRIC
; #@! TA.AperFunction,Plated,PTH,ViaDrill
T1C0.300
; #@! TA.AperFunction,Plated,PTH,ComponentDrill
T2C0.800
; #@! TA.AperFunction,Plated,PTH,ComponentDrill
T3C0.900
; #@! TA.AperFunction,Plated,PTH,ComponentDrill
T4C1.000
; #@! TA.AperFunction,Plated,PTH,ComponentDrill
T5C1.100
; #@! TA.AperFunction,Plated,PTH,ComponentDrill
T6C1.200
; #@! TA.AperFunction,Plated,PTH,ComponentDrill
T7C1.500
; #@! TA.AperFunction,Plated,PTH,ComponentDrill
T8C1.520
%
G90
G05
T1
X75.0Y-82.807
X75.5Y-83.557
X76.0Y-84.307
X76.5Y-85.057
X85.3Y-75.2
X85.776Y-81.076
X87.3Y-73.5
X98.2Y-74.73
X116.0Y-64.6
T2
X56.0Y-88.46
X56.0Y-91.0
X56.0Y-95.415
X56.0Y-97.955
X56.0Y-100.545
X56.0Y-105.545
X56.0Y-108.45
X56.0Y-110.99
X60.0Y-88.46
X60.0Y-91.0
X60.0Y-95.415
X60.0Y-97.955
X60.0Y-100.5
X60.0Y-105.5
X60.0Y-108.455
X60.0Y-110.995
X64.0Y-88.46
X64.0Y-91.0
X64.0Y-95.415
X64.0Y-97.955
X64.0Y-100.545
X64.0Y-105.545
X64.0Y-108.45
X64.0Y-110.99
X68.0Y-88.46
X68.0Y-91.0
X68.0Y-95.415
X68.0Y-97.955
X68.0Y-100.545
X68.0Y-105.545
X68.0Y-108.45
X68.0Y-110.99
X72.0Y-88.46
X72.0Y-91.0
X72.0Y-95.46
X72.0Y-98.0
X72.0Y-100.545
X72.0Y-105.545
X72.0Y-108.45
X72.0Y-110.99
X76.0Y-88.46
X76.0Y-91.0
X76.0Y-95.46
X76.0Y-98.0
X76.0Y-100.545
X76.0Y-105.545
X76.0Y-108.45
X76.0Y-110.99
X80.0Y-88.46
X80.0Y-91.0
X80.0Y-95.46
X80.0Y-98.0
X80.0Y-100.545
X80.0Y-105.545
X80.0Y-108.405
X80.0Y-110.945
X84.0Y-88.46
X84.0Y-91.0
X84.0Y-95.46
X84.0Y-98.0
X84.0Y-100.545
X84.0Y-105.545
X84.0Y-108.45
X84.0Y-110.99
X89.96Y-106.0
X89.96Y-109.5
X89.96Y-113.0
X89.96Y-116.5
X92.5Y-106.0
X92.5Y-109.5
X92.5Y-113.0
X92.5Y-116.5
X96.19Y-108.88
X96.19Y-111.42
X96.19Y-113.96
X96.19Y-116.5
X103.81Y-108.88
X103.81Y-111.42
X103.81Y-113.96
X103.81Y-116.5
X108.0Y-108.88
X108.0Y-113.88
X114.96Y-79.81
X114.96Y-84.89
X114.96Y-91.0
X115.0Y-108.88
X115.0Y-113.88
X115.57Y-59.69
X117.5Y-79.81
X117.5Y-84.89
X117.5Y-91.0
X118.11Y-59.69
X120.995Y-115.5
X121.46Y-111.2
X123.96Y-91.0
X124.0Y-111.2
X125.995Y-115.5
X126.5Y-91.0
X127.06Y-111.2
X128.495Y-115.5
X129.6Y-111.2
X132.96Y-91.0
X133.495Y-115.5
X135.5Y-91.0
X141.96Y-91.0
X144.5Y-91.0
T3
X115.57Y-54.61
X118.11Y-54.61
T4
X53.0Y-67.0
X53.0Y-69.54
X53.0Y-72.08
X53.0Y-74.62
X53.0Y-77.16
X53.0Y-79.7
X78.4Y-67.0
X78.4Y-69.54
X78.4Y-72.08
X78.4Y-74.62
X78.4Y-77.16
X78.4Y-79.7
X91.11Y-51.87
X91.11Y-54.41
X91.11Y-56.95
X91.11Y-59.49
X91.11Y-62.03
X91.11Y-64.57
X91.11Y-67.11
X91.11Y-69.65
X91.11Y-72.19
X91.11Y-74.73
X91.11Y-77.27
X91.11Y-79.81
X91.11Y-82.35
X91.11Y-84.89
X91.11Y-87.43
X91.11Y-89.97
X91.11Y-92.51
X91.11Y-95.05
X91.11Y-97.59
X91.11Y-100.13
X108.89Y-51.87
X108.89Y-54.41
X108.89Y-56.95
X108.89Y-59.49
X108.89Y-62.03
X108.89Y-64.57
X108.89Y-67.11
X108.89Y-69.65
X108.89Y-72.19
X108.89Y-74.73
X108.89Y-77.27
X108.89Y-79.81
X108.89Y-82.35
X108.89Y-84.89
X108.89Y-87.43
X108.89Y-89.97
X108.89Y-92.51
X108.89Y-95.05
X108.89Y-97.59
X108.89Y-100.13
X121.6Y-67.0
X121.6Y-69.54
X121.6Y-72.08
X121.6Y-74.62
X121.6Y-77.16
X121.6Y-79.7
X124.46Y-54.61
X124.46Y-57.15
X124.46Y-59.69
X124.46Y-62.23
X124.5Y-52.07
X147.0Y-67.0
X147.0Y-69.54
X147.0Y-72.08
X147.0Y-74.62
X147.0Y-77.16
X147.0Y-79.7
T5
X114.96Y-94.5
X114.96Y-101.0
X119.46Y-94.5
X119.46Y-101.0
X123.96Y-94.5
X123.96Y-101.0
X128.46Y-94.5
X128.46Y-101.0
X132.96Y-94.5
X132.96Y-101.0
X137.46Y-94.5
X137.46Y-101.0
X141.96Y-94.5
X141.96Y-101.0
X146.46Y-94.5
X146.46Y-101.0
T6
X62.45Y-78.975
X62.45Y-83.475
X63.2Y-64.495
X65.7Y-64.495
X68.2Y-64.495
X68.95Y-78.975
X68.95Y-83.475
X74.43Y-70.725
X74.43Y-73.225
X74.43Y-75.725
X131.05Y-78.975
X131.05Y-83.475
X131.8Y-64.495
X134.3Y-64.495
X136.8Y-64.495
X137.55Y-78.975
X137.55Y-83.475
X143.03Y-70.725
X143.03Y-73.225
X143.03Y-75.725
T7
X59.375Y-68.225
X59.375Y-78.225
X72.025Y-68.225
X72.025Y-78.225
X127.975Y-68.225
X127.975Y-78.225
X140.625Y-68.225
X140.625Y-78.225
T8
X77.47Y-57.15
X82.55Y-57.15
X130.81Y-57.15
X135.89Y-57.15
M30
