%TF.GenerationSoftware,KiCad,Pcbnew,9.0.2*%
%TF.CreationDate,2025-07-04T21:54:35+09:00*%
%TF.ProjectId,sound_remocon_v2,736f756e-645f-4726-956d-6f636f6e5f76,rev?*%
%TF.SameCoordinates,Original*%
%TF.FileFunction,Soldermask,Top*%
%TF.FilePolarity,Negative*%
%FSLAX46Y46*%
G04 Gerber Fmt 4.6, Leading zero omitted, Abs format (unit mm)*
G04 Created by KiCad (PCBNEW 9.0.2) date 2025-07-04 21:54:35*
%MOMM*%
%LPD*%
G01*
G04 APERTURE LIST*
G04 Aperture macros list*
%AMRoundRect*
0 Rectangle with rounded corners*
0 $1 Rounding radius*
0 $2 $3 $4 $5 $6 $7 $8 $9 X,Y pos of 4 corners*
0 Add a 4 corners polygon primitive as box body*
4,1,4,$2,$3,$4,$5,$6,$7,$8,$9,$2,$3,0*
0 Add four circle primitives for the rounded corners*
1,1,$1+$1,$2,$3*
1,1,$1+$1,$4,$5*
1,1,$1+$1,$6,$7*
1,1,$1+$1,$8,$9*
0 Add four rect primitives between the rounded corners*
20,1,$1+$1,$2,$3,$4,$5,0*
20,1,$1+$1,$4,$5,$6,$7,0*
20,1,$1+$1,$6,$7,$8,$9,0*
20,1,$1+$1,$8,$9,$2,$3,0*%
%AMFreePoly0*
4,1,37,0.800000,0.796148,0.878414,0.796148,1.032228,0.765552,1.177117,0.705537,1.307515,0.618408,1.418408,0.507515,1.505537,0.377117,1.565552,0.232228,1.596148,0.078414,1.596148,-0.078414,1.565552,-0.232228,1.505537,-0.377117,1.418408,-0.507515,1.307515,-0.618408,1.177117,-0.705537,1.032228,-0.765552,0.878414,-0.796148,0.800000,-0.796148,0.800000,-0.800000,-1.400000,-0.800000,
-1.403843,-0.796157,-1.439018,-0.796157,-1.511114,-0.766294,-1.566294,-0.711114,-1.596157,-0.639018,-1.596157,-0.603843,-1.600000,-0.600000,-1.600000,0.600000,-1.596157,0.603843,-1.596157,0.639018,-1.566294,0.711114,-1.511114,0.766294,-1.439018,0.796157,-1.403843,0.796157,-1.400000,0.800000,0.800000,0.800000,0.800000,0.796148,0.800000,0.796148,$1*%
%AMFreePoly1*
4,1,37,1.403843,0.796157,1.439018,0.796157,1.511114,0.766294,1.566294,0.711114,1.596157,0.639018,1.596157,0.603843,1.600000,0.600000,1.600000,-0.600000,1.596157,-0.603843,1.596157,-0.639018,1.566294,-0.711114,1.511114,-0.766294,1.439018,-0.796157,1.403843,-0.796157,1.400000,-0.800000,-0.800000,-0.800000,-0.800000,-0.796148,-0.878414,-0.796148,-1.032228,-0.765552,-1.177117,-0.705537,
-1.307515,-0.618408,-1.418408,-0.507515,-1.505537,-0.377117,-1.565552,-0.232228,-1.596148,-0.078414,-1.596148,0.078414,-1.565552,0.232228,-1.505537,0.377117,-1.418408,0.507515,-1.307515,0.618408,-1.177117,0.705537,-1.032228,0.765552,-0.878414,0.796148,-0.800000,0.796148,-0.800000,0.800000,1.400000,0.800000,1.403843,0.796157,1.403843,0.796157,$1*%
%AMFreePoly2*
4,1,37,0.603843,0.796157,0.639018,0.796157,0.711114,0.766294,0.766294,0.711114,0.796157,0.639018,0.796157,0.603843,0.800000,0.600000,0.800000,-0.600000,0.796157,-0.603843,0.796157,-0.639018,0.766294,-0.711114,0.711114,-0.766294,0.639018,-0.796157,0.603843,-0.796157,0.600000,-0.800000,0.000000,-0.800000,0.000000,-0.796148,-0.078414,-0.796148,-0.232228,-0.765552,-0.377117,-0.705537,
-0.507515,-0.618408,-0.618408,-0.507515,-0.705537,-0.377117,-0.765552,-0.232228,-0.796148,-0.078414,-0.796148,0.078414,-0.765552,0.232228,-0.705537,0.377117,-0.618408,0.507515,-0.507515,0.618408,-0.377117,0.705537,-0.232228,0.765552,-0.078414,0.796148,0.000000,0.796148,0.000000,0.800000,0.600000,0.800000,0.603843,0.796157,0.603843,0.796157,$1*%
%AMFreePoly3*
4,1,37,0.000000,0.796148,0.078414,0.796148,0.232228,0.765552,0.377117,0.705537,0.507515,0.618408,0.618408,0.507515,0.705537,0.377117,0.765552,0.232228,0.796148,0.078414,0.796148,-0.078414,0.765552,-0.232228,0.705537,-0.377117,0.618408,-0.507515,0.507515,-0.618408,0.377117,-0.705537,0.232228,-0.765552,0.078414,-0.796148,0.000000,-0.796148,0.000000,-0.800000,-0.600000,-0.800000,
-0.603843,-0.796157,-0.639018,-0.796157,-0.711114,-0.766294,-0.766294,-0.711114,-0.796157,-0.639018,-0.796157,-0.603843,-0.800000,-0.600000,-0.800000,0.600000,-0.796157,0.603843,-0.796157,0.639018,-0.766294,0.711114,-0.711114,0.766294,-0.639018,0.796157,-0.603843,0.796157,-0.600000,0.800000,0.000000,0.800000,0.000000,0.796148,0.000000,0.796148,$1*%
G04 Aperture macros list end*
%ADD10C,1.600000*%
%ADD11C,3.200000*%
%ADD12C,2.200000*%
%ADD13C,1.850000*%
%ADD14FreePoly0,0.000000*%
%ADD15RoundRect,0.200000X-0.600000X-0.600000X0.600000X-0.600000X0.600000X0.600000X-0.600000X0.600000X0*%
%ADD16RoundRect,0.800000X-0.800000X-0.000010X0.800000X-0.000010X0.800000X0.000010X-0.800000X0.000010X0*%
%ADD17FreePoly1,0.000000*%
%ADD18FreePoly2,0.000000*%
%ADD19FreePoly3,0.000000*%
%ADD20C,2.000000*%
%ADD21R,3.000000X3.000000*%
%ADD22C,3.000000*%
%ADD23C,1.500000*%
%ADD24R,1.700000X1.700000*%
%ADD25C,1.700000*%
%ADD26RoundRect,0.250000X-0.550000X-0.550000X0.550000X-0.550000X0.550000X0.550000X-0.550000X0.550000X0*%
%ADD27RoundRect,0.250000X-0.550000X0.550000X-0.550000X-0.550000X0.550000X-0.550000X0.550000X0.550000X0*%
%ADD28R,1.800000X1.800000*%
%ADD29C,1.800000*%
G04 APERTURE END LIST*
D10*
%TO.C,Rc5*%
X72000000Y-108450000D03*
X72000000Y-110990000D03*
%TD*%
D11*
%TO.C,REF\u002A\u002A*%
X146000000Y-54000000D03*
%TD*%
%TO.C,REF\u002A\u002A*%
X54000000Y-54000000D03*
%TD*%
D10*
%TO.C,C2*%
X60000000Y-100500000D03*
X60000000Y-105500000D03*
%TD*%
D11*
%TO.C,REF\u002A\u002A*%
X54000000Y-116000000D03*
%TD*%
D10*
%TO.C,Ra6*%
X76000000Y-88460000D03*
X76000000Y-91000000D03*
%TD*%
D11*
%TO.C,REF\u002A\u002A*%
X146000000Y-116000000D03*
%TD*%
D12*
%TO.C,A1*%
X97275000Y-52000000D03*
D13*
X97575000Y-55030000D03*
X102425000Y-55030000D03*
D12*
X102725000Y-52000000D03*
D14*
X90310000Y-51870000D03*
D15*
X91110000Y-51870000D03*
D16*
X90310000Y-54410000D03*
D10*
X91110000Y-54410000D03*
D17*
X90310000Y-56950000D03*
D18*
X91110000Y-56950000D03*
D16*
X90310000Y-59490000D03*
D10*
X91110000Y-59490000D03*
D16*
X90310000Y-62030000D03*
D10*
X91110000Y-62030000D03*
D16*
X90310000Y-64570000D03*
D10*
X91110000Y-64570000D03*
D16*
X90310000Y-67110000D03*
D10*
X91110000Y-67110000D03*
D17*
X90310000Y-69650000D03*
D18*
X91110000Y-69650000D03*
D16*
X90310000Y-72190000D03*
D10*
X91110000Y-72190000D03*
D16*
X90310000Y-74730000D03*
D10*
X91110000Y-74730000D03*
D16*
X90310000Y-77270000D03*
D10*
X91110000Y-77270000D03*
D16*
X90310000Y-79810000D03*
D10*
X91110000Y-79810000D03*
D17*
X90310000Y-82350000D03*
D18*
X91110000Y-82350000D03*
D16*
X90310000Y-84890000D03*
D10*
X91110000Y-84890000D03*
D16*
X90310000Y-87430000D03*
D10*
X91110000Y-87430000D03*
D16*
X90310000Y-89970000D03*
D10*
X91110000Y-89970000D03*
D16*
X90310000Y-92510000D03*
D10*
X91110000Y-92510000D03*
D17*
X90310000Y-95050000D03*
D18*
X91110000Y-95050000D03*
D16*
X90310000Y-97590000D03*
D10*
X91110000Y-97590000D03*
D16*
X90310000Y-100130000D03*
D10*
X91110000Y-100130000D03*
X108890000Y-100130000D03*
D16*
X109690000Y-100130000D03*
D10*
X108890000Y-97590000D03*
D16*
X109690000Y-97590000D03*
D19*
X108890000Y-95050000D03*
D14*
X109690000Y-95050000D03*
D10*
X108890000Y-92510000D03*
D16*
X109690000Y-92510000D03*
D10*
X108890000Y-89970000D03*
D16*
X109690000Y-89970000D03*
D10*
X108890000Y-87430000D03*
D16*
X109690000Y-87430000D03*
D10*
X108890000Y-84890000D03*
D16*
X109690000Y-84890000D03*
D19*
X108890000Y-82350000D03*
D14*
X109690000Y-82350000D03*
D10*
X108890000Y-79810000D03*
D16*
X109690000Y-79810000D03*
D10*
X108890000Y-77270000D03*
D16*
X109690000Y-77270000D03*
D10*
X108890000Y-74730000D03*
D16*
X109690000Y-74730000D03*
D10*
X108890000Y-72190000D03*
D16*
X109690000Y-72190000D03*
D19*
X108890000Y-69650000D03*
D14*
X109690000Y-69650000D03*
D10*
X108890000Y-67110000D03*
D16*
X109690000Y-67110000D03*
D10*
X108890000Y-64570000D03*
D16*
X109690000Y-64570000D03*
D10*
X108890000Y-62030000D03*
D16*
X109690000Y-62030000D03*
D10*
X108890000Y-59490000D03*
D16*
X109690000Y-59490000D03*
D19*
X108890000Y-56950000D03*
D14*
X109690000Y-56950000D03*
D10*
X108890000Y-54410000D03*
D16*
X109690000Y-54410000D03*
D10*
X108890000Y-51870000D03*
D16*
X109690000Y-51870000D03*
%TD*%
D20*
%TO.C,SW2*%
X123960000Y-101000000D03*
X123960000Y-94500000D03*
X128460000Y-101000000D03*
X128460000Y-94500000D03*
%TD*%
D21*
%TO.C,Power1*%
X130810000Y-57150000D03*
D22*
X135890000Y-57150000D03*
%TD*%
D10*
%TO.C,C4*%
X68000000Y-100545000D03*
X68000000Y-105545000D03*
%TD*%
%TO.C,Rb5*%
X72000000Y-95460000D03*
X72000000Y-98000000D03*
%TD*%
%TO.C,R1*%
X114960000Y-91000000D03*
X117500000Y-91000000D03*
%TD*%
%TO.C,Ra4*%
X68000000Y-88460000D03*
X68000000Y-91000000D03*
%TD*%
%TO.C,Rb7*%
X80000000Y-95460000D03*
X80000000Y-98000000D03*
%TD*%
%TO.C,Rrs1*%
X114960000Y-79810000D03*
X117500000Y-79810000D03*
%TD*%
%TO.C,Rls1*%
X114960000Y-84890000D03*
X117500000Y-84890000D03*
%TD*%
D20*
%TO.C,SW1*%
X114960000Y-101000000D03*
X114960000Y-94500000D03*
X119460000Y-101000000D03*
X119460000Y-94500000D03*
%TD*%
D10*
%TO.C,R3*%
X132960000Y-91000000D03*
X135500000Y-91000000D03*
%TD*%
%TO.C,C10*%
X125995000Y-115500000D03*
X120995000Y-115500000D03*
%TD*%
%TO.C,Rb2*%
X60000000Y-95415000D03*
X60000000Y-97955000D03*
%TD*%
%TO.C,Ra5*%
X72000000Y-88460000D03*
X72000000Y-91000000D03*
%TD*%
%TO.C,C8*%
X84000000Y-100545000D03*
X84000000Y-105545000D03*
%TD*%
D23*
%TO.C,*%
X124460000Y-62230000D03*
%TD*%
D24*
%TO.C,SW_PWR1*%
X124460000Y-54610000D03*
D25*
X124460000Y-57150000D03*
X124460000Y-59690000D03*
%TD*%
D24*
%TO.C,RightStickJ1*%
X121600000Y-67000000D03*
D25*
X121600000Y-69540000D03*
X121600000Y-72080000D03*
X121600000Y-74620000D03*
X121600000Y-77160000D03*
X121600000Y-79700000D03*
%TD*%
D26*
%TO.C,U1*%
X96190000Y-108880000D03*
D10*
X96190000Y-111420000D03*
X96190000Y-113960000D03*
X96190000Y-116500000D03*
X103810000Y-116500000D03*
X103810000Y-113960000D03*
X103810000Y-111420000D03*
X103810000Y-108880000D03*
%TD*%
%TO.C,Rc6*%
X76000000Y-108450000D03*
X76000000Y-110990000D03*
%TD*%
D20*
%TO.C,SW4*%
X141960000Y-101000000D03*
X141960000Y-94500000D03*
X146460000Y-101000000D03*
X146460000Y-94500000D03*
%TD*%
D24*
%TO.C,RightStickJ2*%
X147000000Y-67000000D03*
D25*
X147000000Y-69540000D03*
X147000000Y-72080000D03*
X147000000Y-74620000D03*
X147000000Y-77160000D03*
X147000000Y-79700000D03*
%TD*%
D10*
%TO.C,Rb4*%
X68000000Y-95415000D03*
X68000000Y-97955000D03*
%TD*%
%TO.C,Rg1*%
X89960000Y-116500000D03*
X92500000Y-116500000D03*
%TD*%
%TO.C,Rb8*%
X84000000Y-95460000D03*
X84000000Y-98000000D03*
%TD*%
%TO.C,Re2*%
X89960000Y-109500000D03*
X92500000Y-109500000D03*
%TD*%
%TO.C,Ra2*%
X60000000Y-88460000D03*
X60000000Y-91000000D03*
%TD*%
D21*
%TO.C,MixedSignalOut1*%
X77470000Y-57150000D03*
D22*
X82550000Y-57150000D03*
%TD*%
D10*
%TO.C,R2*%
X123960000Y-91000000D03*
X126500000Y-91000000D03*
%TD*%
%TO.C,Rb3*%
X64000000Y-95415000D03*
X64000000Y-97955000D03*
%TD*%
%TO.C,C1*%
X56000000Y-100545000D03*
X56000000Y-105545000D03*
%TD*%
%TO.C,C9*%
X128495000Y-115500000D03*
X133495000Y-115500000D03*
%TD*%
%TO.C,Rc2*%
X60000000Y-108455000D03*
X60000000Y-110995000D03*
%TD*%
D27*
%TO.C,Cp2*%
X115000000Y-108880000D03*
D10*
X115000000Y-113880000D03*
%TD*%
%TO.C,R4*%
X141960000Y-91000000D03*
X144500000Y-91000000D03*
%TD*%
%TO.C,C6*%
X76000000Y-100545000D03*
X76000000Y-105545000D03*
%TD*%
%TO.C,Cp1*%
X108000000Y-108880000D03*
X108000000Y-113880000D03*
%TD*%
%TO.C,Rb1*%
X56000000Y-95415000D03*
X56000000Y-97955000D03*
%TD*%
D23*
%TO.C,*%
X124500000Y-52070000D03*
%TD*%
D28*
%TO.C,D1*%
X115570000Y-54610000D03*
D29*
X118110000Y-54610000D03*
%TD*%
D10*
%TO.C,Rb6*%
X76000000Y-95460000D03*
X76000000Y-98000000D03*
%TD*%
%TO.C,C5*%
X72000000Y-100545000D03*
X72000000Y-105545000D03*
%TD*%
%TO.C,Rc8*%
X84000000Y-108450000D03*
X84000000Y-110990000D03*
%TD*%
%TO.C,Rc7*%
X80000000Y-108405000D03*
X80000000Y-110945000D03*
%TD*%
%TO.C,Ra8*%
X84000000Y-88460000D03*
X84000000Y-91000000D03*
%TD*%
%TO.C,Rh1*%
X121460000Y-111200000D03*
X124000000Y-111200000D03*
%TD*%
D20*
%TO.C,SW3*%
X132960000Y-101000000D03*
X132960000Y-94500000D03*
X137460000Y-101000000D03*
X137460000Y-94500000D03*
%TD*%
D24*
%TO.C,LeftStickJ2*%
X78400000Y-67000000D03*
D25*
X78400000Y-69540000D03*
X78400000Y-72080000D03*
X78400000Y-74620000D03*
X78400000Y-77160000D03*
X78400000Y-79700000D03*
%TD*%
D20*
%TO.C,LeftStick1*%
X61400000Y-73225000D03*
X70000000Y-73225000D03*
X68200000Y-64495000D03*
X65700000Y-64495000D03*
X63200000Y-64495000D03*
X74430000Y-75725000D03*
X74430000Y-73225000D03*
X74430000Y-70725000D03*
X62450000Y-78975000D03*
X62450000Y-83475000D03*
X68950000Y-78975000D03*
X68950000Y-83475000D03*
X59375000Y-68225000D03*
X59375000Y-78225000D03*
X72025000Y-68225000D03*
X72025000Y-78225000D03*
%TD*%
D10*
%TO.C,Ra7*%
X80000000Y-88460000D03*
X80000000Y-91000000D03*
%TD*%
%TO.C,Ra3*%
X64000000Y-88460000D03*
X64000000Y-91000000D03*
%TD*%
%TO.C,Ra1*%
X56000000Y-88460000D03*
X56000000Y-91000000D03*
%TD*%
%TO.C,Re1*%
X89960000Y-106000000D03*
X92500000Y-106000000D03*
%TD*%
%TO.C,C7*%
X80000000Y-100545000D03*
X80000000Y-105545000D03*
%TD*%
%TO.C,Rh2*%
X127060000Y-111200000D03*
X129600000Y-111200000D03*
%TD*%
%TO.C,Rf1*%
X89960000Y-113000000D03*
X92500000Y-113000000D03*
%TD*%
D24*
%TO.C,LeftStickJ1*%
X53000000Y-67000000D03*
D25*
X53000000Y-69540000D03*
X53000000Y-72080000D03*
X53000000Y-74620000D03*
X53000000Y-77160000D03*
X53000000Y-79700000D03*
%TD*%
D10*
%TO.C,Rled1*%
X115570000Y-59690000D03*
X118110000Y-59690000D03*
%TD*%
%TO.C,Rc1*%
X56000000Y-108450000D03*
X56000000Y-110990000D03*
%TD*%
D20*
%TO.C,RightStick1*%
X130000000Y-73225000D03*
X138600000Y-73225000D03*
X136800000Y-64495000D03*
X134300000Y-64495000D03*
X131800000Y-64495000D03*
X143030000Y-75725000D03*
X143030000Y-73225000D03*
X143030000Y-70725000D03*
X131050000Y-78975000D03*
X131050000Y-83475000D03*
X137550000Y-78975000D03*
X137550000Y-83475000D03*
X127975000Y-68225000D03*
X127975000Y-78225000D03*
X140625000Y-68225000D03*
X140625000Y-78225000D03*
%TD*%
D10*
%TO.C,Rc4*%
X68000000Y-108450000D03*
X68000000Y-110990000D03*
%TD*%
%TO.C,C3*%
X64000000Y-100545000D03*
X64000000Y-105545000D03*
%TD*%
%TO.C,Rc3*%
X64000000Y-108450000D03*
X64000000Y-110990000D03*
%TD*%
M02*
