M48
; DRILL file {KiCad 8.0.7} date 2024-12-30T22:27:37+0900
; FORMAT={-:-/ absolute / inch / decimal}
; #@! TF.CreationDate,2024-12-30T22:27:37+09:00
; #@! TF.GenerationSoftware,Kicad,Pcbnew,8.0.7
; #@! TF.FileFunction,Plated,1,2,PTH
FMAT,2
INCH
; #@! TA.AperFunction,Plated,PTH,ComponentDrill
T1C0.0315
; #@! TA.AperFunction,Plated,PTH,ComponentDrill
T2C0.0354
; #@! TA.AperFunction,Plated,PTH,ComponentDrill
T3C0.0472
; #@! TA.AperFunction,Plated,PTH,ComponentDrill
T4C0.0591
; #@! TA.AperFunction,Plated,PTH,ComponentDrill
T5C0.0598
%
G90
G05
T1
X0.9524Y-1.6571
X0.9524Y-1.7902
X0.9524Y-2.4051
X0.9524Y-2.5382
X0.9543Y-2.7874
X0.9543Y-2.8874
X0.9543Y-2.9874
X0.9543Y-3.0874
X0.9701Y-1.2437
X0.9701Y-1.5437
X0.9701Y-1.9913
X0.9701Y-2.2913
X1.0508Y-1.7902
X1.0508Y-2.5382
X1.1024Y-1.2437
X1.1024Y-1.5437
X1.1024Y-1.9913
X1.1024Y-2.2913
X1.2346Y-1.2433
X1.2346Y-1.5433
X1.2346Y-1.9913
X1.2346Y-2.2913
X1.2524Y-1.6571
X1.2524Y-2.4051
X1.2543Y-2.7874
X1.2543Y-2.8874
X1.2543Y-2.9874
X1.2543Y-3.0874
X1.348Y-2.7874
X1.348Y-2.937
X1.348Y-3.0866
X1.4465Y-2.7874
X1.4465Y-2.937
X1.4465Y-3.0866
X1.7402Y-2.989
X1.7402Y-3.0874
X1.8898Y-2.7874
X1.8898Y-3.0874
X2.0315Y-2.8906
X2.0315Y-3.0874
X2.0563Y-2.4051
X2.0563Y-2.5382
X2.074Y-1.9913
X2.074Y-2.2913
X2.1547Y-2.5382
X2.1654Y-2.7874
X2.1654Y-3.0874
X2.2063Y-1.9913
X2.2063Y-2.2913
X2.2992Y-2.7874
X2.2992Y-3.0874
X2.3386Y-1.9913
X2.3386Y-2.2913
X2.3563Y-2.4051
X2.4976Y-2.7874
X2.4976Y-3.0874
X2.6055Y-1.563
X2.6063Y-1.7795
X2.6063Y-1.8795
X2.6063Y-1.9795
X2.6063Y-2.0795
X2.6063Y-2.3031
X2.6063Y-2.4031
X2.6063Y-2.5031
X2.6063Y-2.6031
X2.6252Y-2.7874
X2.6252Y-3.0874
X2.7528Y-2.7874
X2.7528Y-3.0874
X2.8803Y-2.7874
X2.8803Y-3.0874
X2.9055Y-1.563
X2.9063Y-1.7795
X2.9063Y-1.8795
X2.9063Y-1.9795
X2.9063Y-2.0795
X2.9063Y-2.3031
X2.9063Y-2.4031
X2.9063Y-2.5031
X2.9063Y-2.6031
X3.0079Y-2.7874
X3.0079Y-3.0874
X3.1335Y-2.4051
X3.1335Y-2.5382
X3.1354Y-2.7874
X3.1354Y-3.0874
X3.1512Y-1.9913
X3.1512Y-2.2913
X3.2319Y-2.5382
X3.263Y-2.7874
X3.263Y-3.0874
X3.2835Y-1.9913
X3.2835Y-2.2913
X3.3906Y-2.7874
X3.3906Y-3.0874
X3.4157Y-1.9913
X3.4157Y-2.2913
X3.4335Y-2.4051
X3.5181Y-2.7874
X3.5181Y-3.0874
X3.6457Y-2.7874
X3.6457Y-3.0874
X3.7732Y-2.7874
X3.7732Y-3.0874
X4.0677Y-2.7874
X4.0677Y-2.937
X4.0677Y-3.0866
X4.1661Y-2.7874
X4.1661Y-2.937
X4.1661Y-3.0866
X4.2594Y-1.6571
X4.2594Y-1.7902
X4.2598Y-2.7874
X4.2598Y-2.8874
X4.2598Y-2.9874
X4.2598Y-3.0874
X4.261Y-2.4055
X4.261Y-2.5386
X4.2772Y-1.2433
X4.2772Y-1.5433
X4.2787Y-1.9917
X4.2787Y-2.2917
X4.3579Y-1.7902
X4.3594Y-2.5386
X4.4094Y-1.2433
X4.4094Y-1.5433
X4.411Y-1.9917
X4.411Y-2.2917
X4.5417Y-1.2433
X4.5417Y-1.5433
X4.5433Y-1.9917
X4.5433Y-2.2917
X4.5594Y-1.6571
X4.5598Y-2.7874
X4.5598Y-2.8874
X4.5598Y-2.9874
X4.5598Y-3.0874
X4.561Y-2.4055
T2
X2.7059Y-1.378
X2.8059Y-1.378
T3
X1.6437Y-1.6831
X1.6437Y-1.8602
X1.6732Y-1.113
X1.7717Y-1.113
X1.8701Y-1.113
X1.8996Y-1.6831
X1.8996Y-1.8602
X2.1154Y-1.3583
X2.1154Y-1.4567
X2.1154Y-1.5551
X3.6122Y-1.6831
X3.6122Y-1.8602
X3.6417Y-1.113
X3.7402Y-1.113
X3.8386Y-1.113
X3.8681Y-1.6831
X3.8681Y-1.8602
X4.0839Y-1.3583
X4.0839Y-1.4567
X4.0839Y-1.5551
T4
X1.5226Y-1.2598
X1.5226Y-1.6535
X2.0207Y-1.2598
X2.0207Y-1.6535
X3.4911Y-1.2598
X3.4911Y-1.6535
X3.9892Y-1.2598
X3.9892Y-1.6535
T5
X2.278Y-1.063
X2.478Y-1.063
X3.026Y-1.063
X3.226Y-1.063
M30
